<svg width="60" height="60" viewBox="0 0 60 60" fill="none" xmlns="http://www.w3.org/2000/svg">
<g id="success unsuccess=Check Success">
<mask id="mask0_34_768" style="mask-type:alpha" maskUnits="userSpaceOnUse" x="0" y="0" width="60" height="60">
<rect id="Bounding box" width="60" height="60" fill="#D9D9D9"/>
</mask>
<g mask="url(#mask0_34_768)">
<path id="task_alt" d="M30 55.5082C26.462 55.5082 23.1423 54.8391 20.041 53.5009C16.9396 52.1626 14.2419 50.3464 11.9478 48.0523C9.65366 45.7582 7.83748 43.0604 6.49923 39.9591C5.16098 36.8578 4.49185 33.5381 4.49185 30C4.49185 26.462 5.16098 23.1423 6.49923 20.041C7.83748 16.9396 9.65366 14.2419 11.9478 11.9478C14.2419 9.65366 16.9396 7.83748 20.041 6.49923C23.1423 5.16098 26.462 4.49185 30 4.49185C32.7084 4.49185 35.2709 4.87773 37.6875 5.64948C40.1042 6.42123 42.3433 7.50548 44.4049 8.90223L40.2569 13.1128C38.7333 12.1925 37.1188 11.4735 35.4135 10.9559C33.7081 10.4382 31.9037 10.1794 30 10.1794C24.5081 10.1794 19.8316 12.1074 15.9707 15.9634C12.1099 19.8194 10.1794 24.4982 10.1794 30C10.1794 35.5018 12.1099 40.1807 15.9707 44.0367C19.8316 47.8927 24.508 49.8207 29.9999 49.8207C35.4918 49.8207 40.1683 47.8927 44.0292 44.0367C47.8902 40.1807 49.8207 35.5018 49.8207 30C49.8207 29.3132 49.784 28.6264 49.7107 27.9395C49.6373 27.2526 49.5272 26.5849 49.3805 25.9362L54.0259 21.2908C54.5041 22.654 54.8707 24.0612 55.1257 25.5123C55.3807 26.9634 55.5082 28.4571 55.5082 29.9935C55.5082 33.5359 54.8391 36.8578 53.5009 39.9591C52.1626 43.0604 50.3464 45.7582 48.0523 48.0523C45.7582 50.3464 43.0604 52.1626 39.9591 53.5009C36.8578 54.8391 33.5381 55.5082 30 55.5082ZM26.4552 41.799L15.606 30.9498L19.5095 27.0313L26.4552 33.9769L51.5897 8.77991L55.5082 12.6984L26.4552 41.799Z" fill="#12B72D"/>
</g>
</g>
</svg>
